<?xml version="1.0" standalone="no"?>
<!DOCTYPE svg PUBLIC "-//W3C//DTD SVG 20010904//EN"
 "http://www.w3.org/TR/2001/REC-SVG-20010904/DTD/svg10.dtd">
<svg version="1.0" xmlns="http://www.w3.org/2000/svg"
 width="350.000000pt" height="350.000000pt" viewBox="0 0 350.000000 350.000000"
 preserveAspectRatio="xMidYMid meet">
<metadata>
Created by potrace 1.14, written by Peter Selinger 2001-2017
</metadata>
<g transform="translate(0.000000,350.000000) scale(0.100000,-0.100000)"
fill="#000000" stroke="none">
<path d="M1641 3488 c-24 -4 -67 -10 -95 -13 -28 -4 -64 -8 -81 -10 -72 -9
-289 -70 -361 -102 -21 -9 -41 -17 -44 -18 -27 -6 -50 -18 -50 -27 0 -6 -3 -9
-6 -5 -8 8 -138 -61 -218 -115 -268 -183 -472 -417 -606 -693 -19 -38 -35 -72
-35 -75 -1 -3 -6 -16 -12 -30 -20 -48 -53 -140 -52 -145 0 -3 -7 -31 -16 -63
-10 -31 -19 -68 -21 -82 -3 -14 -9 -52 -15 -85 -6 -33 -13 -78 -16 -100 -6
-56 -11 -288 -5 -299 2 -4 6 -29 8 -55 4 -47 10 -94 21 -146 3 -16 7 -39 8
-50 2 -11 4 -20 5 -20 1 0 3 -7 5 -15 2 -8 15 -55 30 -104 24 -82 36 -112 83
-216 9 -19 15 -38 14 -42 -1 -5 2 -8 7 -8 5 0 13 -10 17 -22 4 -13 17 -39 29
-58 12 -19 22 -37 22 -40 0 -4 86 -128 114 -164 53 -68 202 -222 271 -279 92
-77 398 -261 398 -240 0 5 4 3 8 -3 5 -9 195 -82 217 -84 3 0 10 -2 17 -5 43
-13 212 -46 263 -50 33 -3 74 -8 90 -11 41 -8 188 -12 199 -6 5 3 23 7 40 8
17 2 54 6 81 8 28 3 61 8 75 11 14 3 39 8 56 11 18 3 72 16 120 30 49 13 94
26 99 27 135 35 443 205 553 307 18 16 35 30 38 30 9 0 149 145 204 211 64 77
143 196 197 299 39 75 100 217 109 255 7 28 10 38 17 55 4 8 8 27 11 42 3 15
7 31 9 35 3 5 8 24 11 43 3 19 8 46 11 60 4 14 8 39 10 55 2 17 7 57 11 90 4
33 7 107 7 165 0 125 -6 194 -29 320 -14 73 -12 64 -33 140 -49 172 -128 347
-216 480 -30 44 -52 80 -49 80 2 0 -9 13 -26 30 -16 16 -30 33 -30 38 0 10
-183 197 -235 239 -94 76 -144 113 -153 113 -5 0 -15 7 -23 16 -7 9 -27 23
-45 32 -89 47 -241 122 -247 122 -3 0 -18 5 -34 12 -15 6 -30 12 -33 13 -3 0
-30 9 -60 20 -30 10 -55 17 -55 16 0 -1 -22 5 -49 13 -27 8 -53 13 -58 10 -4
-3 -8 -1 -8 4 0 5 -10 8 -22 7 -13 -1 -27 0 -33 4 -12 6 -8 6 -100 16 -86 10
-78 9 -92 18 -8 5 -13 4 -13 -3 0 -6 -5 -8 -12 -3 -17 10 -141 11 -197 1z"/>
</g>
</svg>
